<svg width="64" height="64" viewBox="0 0 64 64" fill="none" xmlns="http://www.w3.org/2000/svg">
<g clip-path="url(#clip0_289_704)">
<path d="M61.8502 30.934C60.4334 29.0419 58.4201 27.6825 56.1355 27.0754C57.249 23.8385 58.0718 20.5089 58.5942 17.126C58.7649 15.8963 58.6478 14.6438 58.2522 13.4671C57.8566 12.2903 57.1932 11.2215 56.3143 10.3446C55.4354 9.46781 54.365 8.80696 53.1873 8.41411C52.0096 8.02125 50.7568 7.90712 49.5275 8.0807C49.1915 8.12603 48.1942 8.2727 46.8315 8.5367C47.6753 6.66858 48.0751 4.63047 47.9995 2.58203C47.9883 2.23184 47.9083 1.88729 47.7639 1.56804C47.6195 1.24879 47.4137 0.961108 47.1581 0.721409C46.9026 0.48171 46.6023 0.294692 46.2745 0.171032C45.9467 0.047373 45.5977 -0.0105059 45.2475 0.000700194C44.8973 0.0119063 44.5528 0.0919781 44.2335 0.236344C43.9143 0.380709 43.6266 0.586542 43.3869 0.842089C43.1472 1.09764 42.9602 1.39789 42.8365 1.72572C42.7129 2.05354 42.655 2.40251 42.6662 2.7527C42.7117 4.04088 42.4474 5.32116 41.8955 6.48603C41.5099 5.44512 40.9598 4.47277 40.2662 3.60603C39.0874 2.26443 37.591 1.23977 35.9139 0.625776C34.2369 0.0117815 32.4326 -0.171956 30.6662 0.0913669C28.7294 0.246836 26.878 0.95589 25.3329 2.13403C23.5861 0.819883 21.4728 0.0834472 19.2875 0.0273669C16.5147 -0.241379 13.7484 0.599553 11.5942 2.36603C10.5004 3.33982 9.61729 4.52699 8.99912 5.85458C8.38095 7.18218 8.04079 8.62216 7.99953 10.086C7.92635 12.4301 8.60883 14.7355 9.9462 16.662C8.31927 18.057 7.05635 19.827 6.26653 21.8192C5.4767 23.8114 5.18372 25.9659 5.41287 28.0967C3.30394 29.2719 1.66045 31.1331 0.755289 33.3713C-0.14987 35.6094 -0.26223 38.0899 0.436865 40.4007C2.26356 46.7567 5.66348 52.5495 10.3222 57.2434C14.7915 61.6013 20.7946 64.0282 27.0369 64.0007H36.9622C43.2038 64.0287 49.2062 61.6017 53.6742 57.2434C58.3346 52.5504 61.7356 46.7574 63.5622 40.4007C64.0383 38.799 64.1314 37.1077 63.834 35.4634C63.5367 33.8191 62.8571 32.2676 61.8502 30.934ZM50.2689 13.3607C50.6816 13.305 51.1015 13.3455 51.496 13.479C51.8904 13.6125 52.2487 13.8353 52.5427 14.1302C52.8368 14.425 53.0587 14.7838 53.1912 15.1786C53.3236 15.5734 53.363 15.9935 53.3062 16.406C52.747 19.9079 51.8403 23.3453 50.5995 26.6674H43.7702L47.2182 23.2194C47.704 22.7164 47.9727 22.0428 47.9667 21.3436C47.9606 20.6444 47.6801 19.9756 47.1857 19.4812C46.6913 18.9868 46.0225 18.7063 45.3233 18.7002C44.6241 18.6942 43.9505 18.9629 43.4475 19.4487L36.2289 26.6674H32.0982C31.9034 25.2648 32.0372 23.8362 32.4888 22.4942C32.9405 21.1522 33.6977 19.9334 34.7009 18.934C35.8395 17.7847 40.2049 14.6674 50.2689 13.3607ZM13.3329 10.2647C13.3489 9.53056 13.5144 8.80739 13.8193 8.13937C14.1242 7.47134 14.5621 6.87248 15.1062 6.37937C16.2064 5.56615 17.5732 5.19851 18.9329 5.35003C19.5896 5.32303 20.2447 5.43523 20.855 5.67927C21.4653 5.92331 22.0171 6.29367 22.4742 6.76603C22.834 7.16807 23.2746 7.48965 23.7672 7.70976C24.2598 7.92987 24.7933 8.04355 25.3329 8.04337C25.8712 8.04071 26.4029 7.92491 26.8935 7.70347C27.3842 7.48204 27.8228 7.15993 28.1809 6.75803C28.5786 6.33732 29.0559 5.99976 29.585 5.76493C30.1142 5.53009 30.6847 5.40267 31.2635 5.39003C32.145 5.23302 33.0517 5.29699 33.9023 5.57621C34.753 5.85543 35.5212 6.34119 36.1382 6.99003C36.9477 8.02642 37.3703 9.31281 37.3329 10.6274C37.3329 10.8007 37.3329 11.1794 37.3329 11.1794C33.7929 12.4541 30.7689 14.8551 28.7249 18.014C27.041 16.0206 24.8005 14.5751 22.2903 13.8625C19.7801 13.1499 17.1143 13.2027 14.6342 14.014C13.7493 12.9696 13.2853 11.6328 13.3329 10.2647ZM10.6662 26.6674C10.6662 24.5456 11.5091 22.5108 13.0093 21.0105C14.5096 19.5102 16.5445 18.6674 18.6662 18.6674C20.7879 18.6674 22.8228 19.5102 24.3231 21.0105C25.8233 22.5108 26.6662 24.5456 26.6662 26.6674H10.6662ZM58.4422 38.9047C56.8489 44.3905 53.9165 49.3939 49.9089 53.4647C46.4437 56.8314 41.7934 58.7001 36.9622 58.6674H27.0369C22.2043 58.699 17.5528 56.8305 14.0849 53.4647C10.0771 49.3941 7.14464 44.3905 5.55153 38.9047C5.31247 38.0973 5.2661 37.2452 5.41615 36.4166C5.56621 35.5881 5.9085 34.8063 6.41553 34.134C6.9075 33.4704 7.54846 32.9316 8.28678 32.5611C9.02509 32.1906 9.84012 31.9986 10.6662 32.0007H53.3329C54.1617 31.9961 54.9799 32.1868 55.7211 32.5575C56.4624 32.9281 57.106 33.4682 57.5995 34.134C58.103 34.8081 58.4414 35.5908 58.5878 36.4192C58.7341 37.2477 58.6842 38.099 58.4422 38.9047Z" fill="black"/>
</g>
<defs>
<clipPath id="clip0_289_704">
<rect width="64" height="64" fill="white"/>
</clipPath>
</defs>
</svg>
