<svg width="17" height="20" viewBox="0 0 17 20" fill="none" xmlns="http://www.w3.org/2000/svg">
<path d="M13.8132 8.03842C13.8132 9.81228 13.3184 11.4509 12.485 12.7803L16.6887 17.6768C17.1038 18.1599 17.1038 18.9444 16.6887 19.4275C16.2736 19.9106 15.5996 19.9106 15.1845 19.4275L10.9808 14.531C9.83857 15.501 8.43069 16.0768 6.90659 16.0768C3.09136 16.0768 0 12.4789 0 8.03842C0 3.59797 3.09136 0 6.90659 0C10.7218 0 13.8132 3.59797 13.8132 8.03842ZM6.90659 13.6035C9.54636 13.6035 11.6881 11.1108 11.6881 8.03842C11.6881 4.96604 9.54636 2.47336 6.90659 2.47336C4.26681 2.47336 2.1251 4.96604 2.1251 8.03842C2.1251 11.1108 4.26681 13.6035 6.90659 13.6035Z" fill="black"/>
</svg>
